<svg xmlns="http://www.w3.org/2000/svg" xmlns:xlink="http://www.w3.org/1999/xlink" id="Layer_1" x="0" y="0" version="1.1" viewBox="0 0 256 86" style="enable-background:new 0 0 256 86" xml:space="preserve"><style type="text/css">.st0{fill:#8f7b72}.st1{fill:#7f6b5d}.st2{fill:#6a5144}.st3{fill:#5c4031}.st4{fill:#4c342d}.st5{fill:#3c2516}.st6{fill:#2b180a}.st7{fill:#0f0204}.st8{fill:#b08f7d}.st9{fill:#9e7e65}.st10{fill:#907045}.st11{fill:#765e37}.st12{fill:#704f20}.st13{fill:#653f1b}.st14{fill:#4f2f11}.st15{fill:#3f2202}.st16{fill:#d18d55}.st17{fill:#c47e44}.st18{fill:#ac703f}.st19{fill:#9d6434}.st20{fill:#89582d}.st21{fill:#7d4a25}.st22{fill:#6a3c1e}.st23{fill:#563019}</style><rect width="28.77" height="28.77" x="12.86" y=".12" class="st0"/><rect width="28.77" height="28.77" x="41.63" y=".12" class="st1"/><rect width="28.77" height="28.77" x="70.4" y=".12" class="st2"/><rect width="28.77" height="28.77" x="99.17" y=".12" class="st3"/><rect width="28.77" height="28.77" x="127.93" y=".12" class="st4"/><rect width="28.77" height="28.77" x="156.7" y=".12" class="st5"/><rect width="28.77" height="28.77" x="185.47" y=".12" class="st6"/><rect width="28.77" height="28.77" x="214.23" y=".12" class="st7"/><rect width="28.77" height="28.77" x="12.86" y="28.89" class="st8"/><rect width="28.77" height="28.77" x="41.63" y="28.89" class="st9"/><rect width="28.77" height="28.77" x="70.4" y="28.89" class="st10"/><rect width="28.77" height="28.77" x="99.17" y="28.89" class="st11"/><rect width="28.77" height="28.77" x="127.93" y="28.89" class="st12"/><rect width="28.77" height="28.77" x="156.7" y="28.89" class="st13"/><rect width="28.77" height="28.77" x="185.47" y="28.89" class="st14"/><rect width="28.77" height="28.77" x="214.23" y="28.89" class="st15"/><rect width="28.77" height="28.77" x="12.86" y="57.65" class="st16"/><rect width="28.77" height="28.77" x="41.63" y="57.65" class="st17"/><rect width="28.77" height="28.77" x="70.4" y="57.65" class="st18"/><rect width="28.77" height="28.77" x="99.17" y="57.65" class="st19"/><rect width="28.77" height="28.77" x="127.93" y="57.65" class="st20"/><rect width="28.77" height="28.77" x="156.7" y="57.65" class="st21"/><rect width="28.77" height="28.77" x="185.47" y="57.65" class="st22"/><rect width="28.77" height="28.77" x="214.23" y="57.65" class="st23"/></svg>